<svg xmlns="http://www.w3.org/2000/svg" width="130" height="54" viewBox="0 0 130 54">
  <path fill="#606873" fill-rule="evenodd" d="M42.903,25.743 C42.867,25.199 42.567,24.71 42.105,24.43 C43.409,23.995 44.351,22.766 44.351,21.316 C44.351,19.501 42.881,18.03 41.071,18.03 C40.981,18.03 40.901,18.036 40.811,18.043 C40.471,17.626 39.981,17.319 39.411,17.203 C38.731,17.063 38.051,17.226 37.521,17.596 C37.311,17.391 37.041,17.24 36.731,17.172 C37.281,16.988 37.711,16.534 37.841,15.93 C37.861,15.83 37.871,15.734 37.871,15.636 C39.181,15.86 40.431,15.009 40.701,13.701 C40.971,12.371 40.111,11.071 38.781,10.801 C38.361,10.721 37.931,10.751 37.551,10.871 C37.841,10.621 38.051,10.281 38.141,9.881 C38.341,8.901 37.711,7.951 36.731,7.751 C36.201,7.641 35.671,7.791 35.271,8.101 C35.281,7.271 34.701,6.511 33.851,6.341 C32.891,6.151 31.951,6.771 31.751,7.741 C31.731,7.861 31.711,7.971 31.711,8.091 C31.481,7.601 31.031,7.211 30.461,7.091 C30.101,7.021 29.741,7.061 29.431,7.191 C29.981,6.491 30.301,5.601 30.301,4.641 C30.301,2.331 28.431,0.451 26.111,0.451 C25.221,0.451 24.391,0.741 23.711,1.211 C23.05,0.46 22.15,0 21.14,0 C19.46,0 18.08,1.26 17.88,2.885 C17.722,2.863 17.57,2.847 17.4,2.847 C15.59,2.847 14.12,4.317 14.12,6.132 C14.12,6.288 14.14,6.442 14.16,6.592 C13.89,6.392 13.58,6.245 13.23,6.174 C11.96,5.914 10.71,6.739 10.46,8.014 C10.28,8.874 10.6,9.718 11.22,10.256 C11.1,10.239 10.98,10.226 10.86,10.226 C9.53,10.226 8.45,11.304 8.45,12.633 C8.45,13.961 9.527,15.038 10.856,15.038 C11.346,15.038 11.802,14.891 12.182,14.638 C12.282,15.213 12.682,15.702 13.242,15.911 C12.692,16.131 12.242,16.541 11.972,17.071 C11.442,16.261 10.527,15.731 9.487,15.731 C8.417,15.731 7.477,16.301 6.957,17.161 C5.177,17.201 3.737,18.651 3.737,20.441 C3.737,20.611 3.757,20.771 3.777,20.931 C3.477,21.141 3.257,21.461 3.177,21.851 C3.009,22.661 3.527,23.441 4.337,23.601 C4.757,23.691 5.167,23.591 5.487,23.361 C5.767,23.511 6.077,23.621 6.397,23.691 C5.507,24.001 4.747,24.571 4.197,25.311 C3.751,24.841 3.122,24.541 2.427,24.541 C1.09,24.5 0,25.59 0,26.93 C0,28.27 1.085,29.355 2.426,29.355 C2.776,29.355 3.106,29.285 3.406,29.155 C3.708,30.405 4.516,31.465 5.603,32.085 C4.813,32.075 4.103,32.625 3.939,33.425 C3.749,34.33 4.339,35.211 5.239,35.395 C5.109,35.825 4.979,36.315 4.979,36.835 C4.979,38.44 6.279,39.745 7.879,39.745 C7.969,39.745 8.059,39.737 8.149,39.728 C8.429,40.318 8.979,40.768 9.659,40.908 C10.239,41.028 10.809,40.898 11.269,40.605 C11.259,40.665 11.259,40.728 11.259,40.791 C11.259,42.231 12.419,43.401 13.859,43.401 C15.089,43.401 16.119,42.541 16.389,41.391 C16.669,41.501 16.979,41.561 17.299,41.561 C17.919,41.561 18.479,41.351 18.929,40.991 C19.309,41.581 20.359,42.641 20.969,42.991 L20.969,48 C21.099,48.456 20.839,51.047 17.289,51 L5,51 L5,52 L39,52 L39,51 L29.79,51 C29.79,51.047 24.107,50.98 24,48 L24,42.957 C24.86,42.623 25.788,41.727 26.284,40.963 C26.484,41.743 27.108,42.383 27.95,42.553 C28.796,42.723 29.625,42.376 30.112,41.729 C30.797,42.479 31.782,42.949 32.882,42.949 C34.562,42.949 35.984,41.839 36.46,40.319 C36.708,40.499 36.998,40.639 37.32,40.699 C38.494,40.939 39.636,40.179 39.874,39.009 C39.92,38.779 39.928,38.549 39.904,38.329 C41.561,37.939 42.798,36.449 42.798,34.679 C42.798,33.869 42.538,33.119 42.104,32.509 C42.224,32.559 42.35,32.599 42.481,32.619 C43.661,32.859 44.801,32.099 45.041,30.929 C45.231,29.989 44.791,29.079 44.011,28.619 C44.791,28.629 45.501,28.079 45.661,27.279 C45.851,26.379 45.261,25.499 44.361,25.309 C43.831,25.199 43.311,25.369 42.931,25.699 L42.903,25.743 Z M63.28,15 L67.894,15 L68,29 L70,29 L70,32.02 L67.894,32.02 L67.894,37 L64.09,37 L64.09,32.02 L56,32.02 L56,28.765 L63.28,15 Z M63.943,20 L60,29 L64,29 L64,20 L63.943,20 Z M75.863,15.08 L75.863,20.08 L78.03,20 L78.03,22.85 L75.862,22.932 L75.862,32.142 C75.862,32.819 75.96,33.299 76.159,33.584 C76.349,33.869 78.849,33.934 78.999,34 L78.999,37 L76.179,37 C75.339,37 74.659,36.942 74.129,36.826 C73.599,36.71 73.189,36.478 72.909,36.13 C72.629,35.78 72.429,35.322 72.329,34.752 C72.219,34.182 72.059,33.547 72.059,32.682 L72.059,22.932 L69.989,22.852 L69.989,20 L72.059,20.08 L72.059,15.08 L75.839,15.08 L75.863,15.08 Z M84.198,20.43 L84.198,22.648 L84.262,22.648 C84.707,21.848 85.247,21.206 85.884,20.723 C86.519,20.241 87.294,20 88.204,20 C88.332,20 88.464,20.005 88.602,20.015 C88.74,20.025 88.872,20.041 89,20.061 L89,24.131 C88.767,24.111 88.54,24.101 88.317,24.091 C88.094,24.081 87.867,24.081 87.633,24.081 C87.251,24.081 86.869,24.131 86.488,24.241 C86.106,24.351 85.756,24.521 85.438,24.751 C85.12,24.991 84.866,25.301 84.675,25.681 C84.485,26.071 84.388,26.531 84.388,27.091 L84.388,37 L80,37 L80,20.43 L84.198,20.43 Z M94.502,30.64 C94.502,31.145 94.539,31.633 94.612,32.105 C94.686,32.577 94.806,32.997 94.974,33.363 C95.142,33.731 95.364,34.023 95.634,34.245 C95.908,34.465 96.244,34.575 96.642,34.575 C97.376,34.575 97.912,34.313 98.247,33.788 C98.582,33.264 98.813,32.468 98.939,31.398 L102.839,31.398 C102.749,33.368 102.229,34.868 101.259,35.898 C100.289,36.925 98.769,37.438 96.689,37.438 C95.109,37.438 93.889,37.176 93.009,36.652 C92.129,36.127 91.479,35.435 91.059,34.575 C90.639,33.715 90.379,32.749 90.289,31.68 C90.189,30.61 90.149,29.54 90.149,28.47 C90.149,27.337 90.219,26.246 90.379,25.197 C90.529,24.149 90.849,23.215 91.319,22.397 C91.789,21.577 92.469,20.927 93.349,20.445 C94.229,19.963 95.399,19.722 96.869,19.722 C98.129,19.722 99.159,19.926 99.969,20.335 C100.769,20.745 101.409,21.322 101.869,22.065 C102.329,22.811 102.639,23.713 102.809,24.772 C102.979,25.832 103.059,27.012 103.059,28.312 L103.059,29.288 L94.5,29.288 L94.5,30.641 L94.502,30.64 Z M98.812,24.993 C98.752,24.5 98.64,24.08 98.482,23.733 C98.326,23.388 98.105,23.126 97.822,22.947 C97.539,22.769 97.177,22.68 96.737,22.68 C96.297,22.68 95.934,22.78 95.651,22.98 C95.371,23.178 95.151,23.44 94.981,23.765 C94.811,24.091 94.691,24.453 94.621,24.851 C94.551,25.251 94.511,25.651 94.511,26.051 L94.511,26.711 L98.951,26.711 C98.931,26.061 98.891,25.491 98.831,25.001 L98.812,24.993 Z M109.072,30.641 C109.072,31.151 109.109,31.641 109.182,32.111 C109.255,32.581 109.376,33.001 109.544,33.371 C109.712,33.741 109.934,34.031 110.204,34.251 C110.477,34.471 110.814,34.581 111.212,34.581 C111.946,34.581 112.482,34.321 112.817,33.801 C113.152,33.281 113.383,32.481 113.509,31.411 L117.409,31.411 C117.319,33.381 116.799,34.881 115.829,35.911 C114.859,36.941 113.339,37.451 111.259,37.451 C109.679,37.451 108.459,37.191 107.579,36.671 C106.699,36.151 106.049,35.461 105.629,34.601 C105.209,33.741 104.949,32.781 104.859,31.711 C104.759,30.641 104.719,29.571 104.719,28.501 C104.719,27.371 104.789,26.281 104.949,25.231 C105.099,24.181 105.419,23.251 105.889,22.431 C106.359,21.611 107.039,20.961 107.919,20.481 C108.799,20.001 109.969,19.761 111.439,19.761 C112.689,19.761 113.729,19.971 114.539,20.381 C115.339,20.791 115.979,21.371 116.439,22.111 C116.899,22.861 117.209,23.761 117.379,24.821 C117.549,25.881 117.629,27.061 117.629,28.361 L117.629,29.341 L109.039,29.341 L109.039,30.691 L109.072,30.641 Z M113.382,25.001 C113.322,24.511 113.21,24.091 113.052,23.741 C112.896,23.401 112.675,23.141 112.392,22.961 C112.109,22.781 111.747,22.701 111.307,22.701 C110.867,22.701 110.504,22.801 110.221,23.001 C109.941,23.201 109.721,23.461 109.551,23.791 C109.381,24.121 109.261,24.481 109.191,24.881 C109.121,25.281 109.081,25.681 109.081,26.081 L109.081,26.741 L113.521,26.741 C113.501,26.091 113.461,25.521 113.401,25.031 L113.382,25.001 Z M59.825,52.31 C59.705,52.38 59.542,52.415 59.331,52.415 C59.151,52.415 59.011,52.365 58.911,52.265 C58.811,52.165 58.751,52.005 58.751,51.775 C58.561,52.005 58.341,52.165 58.091,52.265 C57.841,52.365 57.571,52.415 57.281,52.415 C57.091,52.415 56.911,52.395 56.741,52.353 C56.571,52.311 56.431,52.243 56.301,52.153 C56.181,52.06 56.081,51.94 56.011,51.793 C55.941,51.643 55.901,51.463 55.901,51.253 C55.901,51.013 55.941,50.82 56.021,50.668 C56.101,50.518 56.211,50.395 56.341,50.298 C56.471,50.206 56.631,50.134 56.801,50.085 C56.971,50.035 57.151,49.995 57.331,49.965 C57.521,49.925 57.701,49.898 57.871,49.878 C58.041,49.858 58.191,49.831 58.321,49.798 C58.451,49.761 58.561,49.71 58.631,49.642 C58.711,49.575 58.751,49.476 58.751,49.346 C58.751,49.196 58.721,49.076 58.661,48.983 C58.611,48.893 58.531,48.823 58.441,48.773 C58.351,48.723 58.251,48.693 58.141,48.676 C58.031,48.658 57.921,48.651 57.821,48.651 C57.531,48.651 57.291,48.711 57.091,48.821 C56.901,48.931 56.791,49.141 56.781,49.451 L56.091,49.451 C56.101,49.191 56.151,48.971 56.251,48.791 C56.351,48.611 56.481,48.471 56.641,48.361 C56.801,48.251 56.991,48.171 57.201,48.121 C57.411,48.081 57.631,48.051 57.871,48.051 C58.061,48.051 58.251,48.071 58.431,48.091 C58.621,48.121 58.791,48.171 58.941,48.261 C59.091,48.341 59.211,48.461 59.311,48.611 C59.401,48.761 59.451,48.961 59.451,49.201 L59.451,51.361 C59.451,51.521 59.461,51.641 59.481,51.721 C59.501,51.801 59.561,51.841 59.671,51.841 C59.731,51.841 59.801,51.831 59.881,51.811 L59.881,52.351 L59.825,52.31 Z M58.705,50.16 C58.62,50.226 58.505,50.273 58.365,50.303 C58.225,50.33 58.078,50.353 57.925,50.373 C57.769,50.393 57.615,50.413 57.458,50.438 C57.301,50.462 57.16,50.501 57.036,50.555 C56.912,50.61 56.81,50.685 56.732,50.785 C56.655,50.885 56.615,51.022 56.615,51.195 C56.615,51.305 56.638,51.401 56.685,51.479 C56.73,51.559 56.79,51.619 56.863,51.669 C56.937,51.719 57.023,51.749 57.119,51.769 C57.209,51.789 57.319,51.799 57.419,51.799 C57.639,51.799 57.839,51.769 57.999,51.709 C58.159,51.649 58.289,51.569 58.389,51.469 C58.489,51.369 58.569,51.269 58.609,51.159 C58.659,51.049 58.679,50.939 58.679,50.849 L58.679,50.149 L58.705,50.16 Z M63.903,46.537 L65.727,51.402 L67.559,46.537 L68.609,46.537 L68.609,52.327 L67.879,52.327 L67.879,47.51 L67.859,47.51 L66.049,52.324 L65.399,52.324 L63.589,47.51 L63.569,47.51 L63.569,52.32 L62.839,52.32 L62.839,46.53 L63.899,46.53 L63.903,46.537 Z M72.286,48.864 C72.113,48.719 71.88,48.644 71.589,48.644 C71.339,48.644 71.129,48.692 70.959,48.784 C70.789,48.874 70.659,48.998 70.559,49.149 C70.459,49.299 70.389,49.469 70.339,49.669 C70.289,49.869 70.269,50.069 70.269,50.279 C70.269,50.469 70.289,50.659 70.339,50.839 C70.379,51.019 70.459,51.179 70.549,51.329 C70.639,51.469 70.769,51.589 70.929,51.669 C71.089,51.749 71.269,51.799 71.489,51.799 C71.829,51.799 72.089,51.709 72.289,51.529 C72.479,51.349 72.599,51.099 72.639,50.769 L73.339,50.769 C73.259,51.279 73.069,51.689 72.759,51.969 C72.449,52.249 72.029,52.389 71.489,52.389 C71.169,52.389 70.889,52.339 70.639,52.229 C70.389,52.119 70.189,51.979 70.019,51.789 C69.849,51.599 69.729,51.369 69.649,51.109 C69.559,50.839 69.519,50.559 69.519,50.239 C69.519,49.919 69.559,49.629 69.639,49.359 C69.719,49.079 69.839,48.849 70.009,48.639 C70.169,48.429 70.379,48.279 70.629,48.159 C70.879,48.039 71.169,47.979 71.489,47.979 C71.729,47.979 71.949,48.009 72.159,48.059 C72.369,48.119 72.549,48.199 72.709,48.319 C72.869,48.439 72.999,48.589 73.099,48.769 C73.199,48.949 73.269,49.159 73.289,49.409 L72.579,49.409 C72.529,49.139 72.409,48.939 72.239,48.789 L72.286,48.864 Z M75.018,46.538 L75.018,49.425 L77.953,46.539 L78.95,46.539 L76.51,48.869 L79.046,52.319 L78.073,52.319 L75.983,49.389 L75.017,50.289 L75.017,52.309 L74.247,52.309 L74.247,46.519 L75.017,46.519 L75.018,46.538 Z M79.582,52.328 L80.272,52.328 L80.272,48.13 L79.582,48.13 L79.582,52.322 L79.582,52.328 Z M79.582,47.382 L80.272,47.382 L80.272,46.54 L79.582,46.54 L79.582,47.383 L79.582,47.382 Z M81.992,48.137 L81.992,48.804 L82.007,48.804 C82.294,48.294 82.747,48.042 83.37,48.042 C83.645,48.042 83.875,48.08 84.06,48.155 C84.242,48.233 84.39,48.338 84.504,48.473 C84.618,48.609 84.697,48.77 84.744,48.957 C84.789,49.144 84.812,49.351 84.812,49.577 L84.812,52.334 L84.122,52.334 L84.122,49.494 C84.122,49.234 84.048,49.028 83.897,48.876 C83.745,48.726 83.537,48.649 83.272,48.649 C83.062,48.649 82.879,48.679 82.725,48.739 C82.571,48.799 82.442,48.889 82.34,49.009 C82.237,49.129 82.16,49.259 82.11,49.419 C82.057,49.579 82.03,49.749 82.03,49.939 L82.03,52.309 L81.342,52.309 L81.342,48.119 L81.992,48.119 L81.992,48.137 Z M86.377,51.395 C86.442,51.5 86.527,51.585 86.632,51.645 C86.738,51.708 86.857,51.753 86.989,51.78 C87.119,51.808 87.259,51.82 87.399,51.82 C87.499,51.82 87.619,51.813 87.739,51.797 C87.859,51.78 87.959,51.75 88.069,51.707 C88.169,51.663 88.249,51.6 88.309,51.517 C88.369,51.433 88.399,51.327 88.399,51.197 C88.399,51.017 88.329,50.883 88.199,50.791 C88.059,50.701 87.889,50.631 87.689,50.571 C87.489,50.521 87.269,50.471 87.029,50.421 C86.789,50.381 86.569,50.311 86.369,50.231 C86.159,50.151 85.999,50.031 85.859,49.881 C85.719,49.731 85.649,49.521 85.649,49.251 C85.649,49.041 85.699,48.861 85.789,48.711 C85.879,48.561 85.999,48.441 86.149,48.341 C86.289,48.251 86.459,48.181 86.649,48.131 C86.829,48.091 87.019,48.061 87.199,48.061 C87.429,48.061 87.649,48.081 87.849,48.121 C88.049,48.161 88.229,48.231 88.379,48.331 C88.529,48.431 88.649,48.571 88.749,48.741 C88.839,48.911 88.889,49.131 88.909,49.381 L88.219,49.381 C88.209,49.251 88.169,49.131 88.109,49.041 C88.049,48.951 87.969,48.881 87.879,48.831 C87.779,48.781 87.679,48.741 87.569,48.721 C87.459,48.701 87.339,48.691 87.229,48.691 C87.129,48.691 87.019,48.701 86.919,48.721 C86.809,48.741 86.719,48.771 86.629,48.811 C86.539,48.851 86.469,48.901 86.419,48.971 C86.359,49.041 86.339,49.131 86.339,49.241 C86.339,49.361 86.379,49.461 86.459,49.541 C86.539,49.621 86.649,49.691 86.779,49.741 C86.909,49.791 87.049,49.839 87.219,49.871 C87.379,49.909 87.539,49.941 87.699,49.981 C87.869,50.021 88.039,50.061 88.199,50.121 C88.359,50.178 88.509,50.251 88.639,50.339 C88.769,50.429 88.869,50.539 88.949,50.679 C89.019,50.809 89.059,50.979 89.059,51.179 C89.059,51.429 89.009,51.639 88.904,51.809 C88.794,51.979 88.654,52.109 88.484,52.214 C88.314,52.314 88.124,52.389 87.907,52.43 C87.693,52.47 87.477,52.49 87.267,52.49 C87.037,52.49 86.817,52.47 86.607,52.42 C86.397,52.38 86.211,52.3 86.049,52.18 C85.889,52.07 85.759,51.93 85.659,51.75 C85.569,51.57 85.509,51.35 85.499,51.09 L86.189,51.09 C86.199,51.24 86.229,51.37 86.299,51.475 L86.377,51.395 Z M92.871,52.065 C92.561,52.302 92.161,52.42 91.691,52.42 C91.361,52.42 91.071,52.367 90.821,52.26 C90.581,52.15 90.371,52 90.201,51.805 C90.031,51.611 89.911,51.378 89.821,51.108 C89.741,50.838 89.691,50.544 89.681,50.225 C89.681,49.905 89.731,49.615 89.831,49.349 C89.931,49.079 90.071,48.849 90.241,48.659 C90.421,48.459 90.631,48.309 90.871,48.209 C91.111,48.099 91.381,48.039 91.661,48.039 C92.041,48.039 92.351,48.119 92.591,48.269 C92.841,48.419 93.031,48.619 93.181,48.859 C93.331,49.089 93.431,49.349 93.491,49.639 C93.551,49.919 93.571,50.189 93.561,50.439 L90.421,50.439 C90.421,50.619 90.441,50.799 90.491,50.959 C90.541,51.119 90.621,51.269 90.731,51.389 C90.841,51.519 90.971,51.619 91.141,51.689 C91.311,51.759 91.511,51.799 91.731,51.799 C92.021,51.799 92.261,51.729 92.451,51.599 C92.641,51.459 92.761,51.259 92.821,50.979 L93.501,50.979 C93.411,51.449 93.211,51.799 92.891,52.039 L92.871,52.065 Z M92.711,49.372 C92.651,49.225 92.571,49.099 92.461,48.994 C92.361,48.889 92.231,48.804 92.091,48.744 C91.951,48.68 91.791,48.65 91.621,48.65 C91.441,48.65 91.281,48.68 91.141,48.743 C91.001,48.803 90.881,48.891 90.771,48.999 C90.671,49.109 90.591,49.229 90.531,49.369 C90.471,49.509 90.441,49.659 90.431,49.829 L92.841,49.829 C92.831,49.669 92.801,49.509 92.731,49.369 L92.711,49.372 Z M95.911,52.882 C95.831,53.089 95.751,53.262 95.681,53.402 C95.601,53.542 95.521,53.658 95.421,53.747 C95.331,53.837 95.221,53.901 95.111,53.942 C95.001,53.982 94.861,54.002 94.711,54.002 C94.631,54.002 94.551,53.997 94.471,53.986 C94.391,53.976 94.311,53.956 94.241,53.929 L94.241,53.289 C94.301,53.309 94.371,53.339 94.451,53.359 C94.531,53.379 94.601,53.389 94.651,53.389 C94.791,53.389 94.911,53.349 95.001,53.289 C95.101,53.229 95.171,53.129 95.221,53.009 L95.511,52.299 L93.851,48.129 L94.631,48.129 L95.861,51.559 L95.871,51.559 L97.041,48.129 L97.771,48.129 L95.931,52.879 L95.911,52.882 Z M103.591,47.326 C103.341,47.14 103.011,47.046 102.611,47.046 C102.451,47.046 102.291,47.063 102.131,47.096 C101.981,47.126 101.841,47.182 101.721,47.256 C101.601,47.333 101.501,47.434 101.431,47.561 C101.361,47.681 101.321,47.841 101.321,48.031 C101.321,48.211 101.381,48.351 101.481,48.471 C101.591,48.581 101.731,48.671 101.911,48.741 C102.091,48.811 102.291,48.871 102.511,48.921 L103.191,49.071 C103.421,49.131 103.651,49.191 103.871,49.261 C104.091,49.341 104.291,49.431 104.471,49.561 C104.651,49.691 104.791,49.841 104.891,50.031 C105.001,50.221 105.051,50.461 105.051,50.741 C105.051,51.051 104.981,51.321 104.851,51.531 C104.721,51.751 104.541,51.931 104.321,52.071 C104.111,52.211 103.871,52.311 103.601,52.371 C103.341,52.441 103.071,52.471 102.801,52.471 C102.481,52.471 102.171,52.431 101.881,52.351 C101.591,52.271 101.341,52.151 101.121,51.981 C100.901,51.821 100.731,51.611 100.601,51.351 C100.481,51.091 100.411,50.791 100.411,50.441 L101.141,50.441 C101.141,50.691 101.191,50.901 101.281,51.071 C101.371,51.251 101.501,51.391 101.651,51.511 C101.811,51.621 101.991,51.711 102.191,51.761 C102.401,51.811 102.611,51.841 102.821,51.841 C103.001,51.841 103.171,51.831 103.351,51.791 C103.529,51.761 103.688,51.701 103.828,51.621 C103.968,51.551 104.078,51.441 104.168,51.301 C104.248,51.171 104.298,51.001 104.298,50.791 C104.298,50.591 104.238,50.431 104.138,50.301 C104.028,50.181 103.888,50.081 103.708,50.001 C103.528,49.921 103.332,49.861 103.108,49.811 L102.433,49.661 C102.203,49.611 101.976,49.551 101.753,49.481 C101.533,49.411 101.333,49.321 101.153,49.211 C100.983,49.101 100.843,48.961 100.733,48.781 C100.633,48.611 100.573,48.391 100.573,48.121 C100.573,47.831 100.633,47.581 100.753,47.361 C100.873,47.151 101.033,46.971 101.233,46.831 C101.431,46.701 101.653,46.591 101.903,46.531 C102.153,46.461 102.413,46.431 102.68,46.431 C102.98,46.431 103.257,46.471 103.51,46.541 C103.763,46.611 103.99,46.721 104.18,46.871 C104.37,47.021 104.525,47.211 104.636,47.441 C104.746,47.671 104.806,47.941 104.816,48.261 L104.086,48.261 C104.046,47.841 103.896,47.541 103.636,47.361 L103.591,47.326 Z M105.741,49.369 C105.821,49.099 105.951,48.869 106.131,48.669 C106.311,48.469 106.521,48.309 106.771,48.199 C107.031,48.079 107.321,48.029 107.651,48.029 C107.991,48.029 108.281,48.079 108.531,48.199 C108.781,48.309 109.001,48.469 109.171,48.659 C109.341,48.849 109.471,49.089 109.561,49.349 C109.651,49.609 109.691,49.899 109.691,50.209 C109.691,50.519 109.651,50.809 109.561,51.069 C109.471,51.339 109.341,51.569 109.171,51.769 C109.001,51.969 108.791,52.119 108.541,52.229 C108.291,52.339 108.001,52.389 107.661,52.389 C107.331,52.389 107.041,52.329 106.791,52.219 C106.541,52.109 106.321,51.949 106.151,51.759 C105.981,51.559 105.851,51.329 105.761,51.059 C105.681,50.789 105.631,50.509 105.631,50.199 C105.631,49.889 105.681,49.599 105.761,49.329 L105.741,49.369 Z M106.441,50.909 C106.511,51.099 106.601,51.269 106.721,51.399 C106.841,51.529 106.981,51.629 107.141,51.699 C107.301,51.769 107.471,51.799 107.651,51.799 C107.831,51.799 108.001,51.769 108.161,51.699 C108.321,51.629 108.461,51.529 108.581,51.389 C108.701,51.249 108.791,51.089 108.861,50.889 C108.931,50.689 108.961,50.459 108.961,50.209 C108.961,49.949 108.931,49.729 108.861,49.529 C108.801,49.329 108.701,49.159 108.581,49.029 C108.461,48.889 108.321,48.789 108.171,48.719 C108.011,48.649 107.841,48.609 107.661,48.609 C107.491,48.609 107.321,48.639 107.161,48.709 C107.001,48.779 106.861,48.879 106.741,49.019 C106.621,49.149 106.531,49.319 106.461,49.509 C106.391,49.699 106.361,49.929 106.361,50.179 C106.361,50.429 106.391,50.659 106.461,50.849 L106.441,50.909 Z M110.531,52.319 L111.221,52.319 L111.221,46.529 L110.531,46.529 L110.531,52.309 L110.531,52.319 Z M115.111,52.319 L115.111,51.649 L115.091,51.649 C114.951,51.909 114.761,52.099 114.531,52.219 C114.311,52.339 114.041,52.399 113.731,52.399 C113.461,52.399 113.231,52.359 113.041,52.289 C112.861,52.209 112.711,52.109 112.601,51.979 C112.491,51.839 112.411,51.679 112.361,51.489 C112.321,51.299 112.291,51.089 112.291,50.869 L112.291,48.119 L112.981,48.119 L112.981,50.949 C112.981,51.209 113.061,51.409 113.211,51.559 C113.371,51.709 113.571,51.779 113.841,51.779 C114.051,51.779 114.231,51.749 114.391,51.689 C114.551,51.619 114.681,51.529 114.781,51.409 C114.891,51.289 114.961,51.149 115.011,50.989 C115.071,50.829 115.091,50.649 115.091,50.459 L115.091,48.1 L115.781,48.1 L115.781,52.29 L115.131,52.29 L115.111,52.319 Z M118.591,48.129 L118.591,48.729 L117.751,48.729 L117.751,51.329 C117.751,51.409 117.761,51.469 117.771,51.519 C117.791,51.569 117.811,51.599 117.851,51.629 C117.891,51.649 117.941,51.669 118.011,51.679 C118.081,51.689 118.171,51.689 118.271,51.689 L118.591,51.689 L118.591,52.299 L118.061,52.299 C117.891,52.299 117.731,52.289 117.611,52.259 C117.491,52.229 117.381,52.189 117.301,52.129 C117.231,52.059 117.171,51.969 117.131,51.849 C117.101,51.729 117.081,51.569 117.081,51.379 L117.081,48.719 L116.371,48.719 L116.371,48.109 L117.091,48.109 L117.091,46.859 L117.781,46.859 L117.781,48.109 L118.621,48.109 L118.591,48.129 Z M119.391,52.319 L120.081,52.319 L120.081,48.129 L119.391,48.129 L119.391,52.319 Z M119.391,47.369 L120.081,47.369 L120.081,46.519 L119.391,46.519 L119.391,47.359 L119.391,47.369 Z M121.051,49.359 C121.141,49.089 121.271,48.859 121.441,48.659 C121.611,48.459 121.831,48.299 122.081,48.189 C122.341,48.069 122.631,48.019 122.961,48.019 C123.301,48.019 123.591,48.069 123.841,48.189 C124.091,48.299 124.301,48.459 124.481,48.649 C124.651,48.839 124.781,49.079 124.871,49.339 C124.961,49.599 125.001,49.889 125.001,50.199 C125.001,50.509 124.961,50.799 124.871,51.059 C124.781,51.329 124.651,51.559 124.481,51.749 C124.311,51.939 124.101,52.099 123.851,52.209 C123.601,52.319 123.311,52.369 122.971,52.369 C122.641,52.369 122.351,52.309 122.101,52.199 C121.851,52.089 121.631,51.929 121.461,51.739 C121.291,51.549 121.161,51.309 121.071,51.039 C120.981,50.769 120.941,50.489 120.941,50.179 C120.941,49.869 120.981,49.579 121.071,49.319 L121.051,49.359 Z M121.751,50.899 C121.821,51.089 121.911,51.259 122.031,51.389 C122.151,51.519 122.291,51.619 122.451,51.689 C122.611,51.759 122.781,51.789 122.961,51.789 C123.141,51.789 123.311,51.759 123.471,51.689 C123.631,51.619 123.771,51.519 123.891,51.379 C124.011,51.239 124.111,51.079 124.171,50.879 C124.241,50.679 124.271,50.449 124.271,50.199 C124.271,49.939 124.241,49.719 124.171,49.519 C124.111,49.319 124.011,49.149 123.891,49.019 C123.771,48.879 123.641,48.779 123.481,48.709 C123.321,48.639 123.151,48.599 122.981,48.599 C122.801,48.599 122.631,48.629 122.481,48.699 C122.321,48.769 122.181,48.869 122.061,49.009 C121.941,49.139 121.851,49.309 121.781,49.499 C121.721,49.689 121.681,49.919 121.681,50.169 C121.681,50.419 121.721,50.649 121.781,50.839 L121.751,50.899 Z M126.451,48.119 L126.451,48.789 L126.471,48.789 C126.761,48.279 127.211,48.029 127.831,48.029 C128.111,48.029 128.341,48.069 128.521,48.139 C128.701,48.209 128.851,48.319 128.971,48.449 C129.091,48.579 129.171,48.739 129.211,48.929 C129.261,49.109 129.281,49.319 129.281,49.549 L129.281,52.299 L128.591,52.299 L128.591,49.469 C128.591,49.209 128.521,48.999 128.371,48.849 C128.221,48.699 128.011,48.619 127.751,48.619 C127.541,48.619 127.361,48.649 127.211,48.719 C127.061,48.779 126.931,48.879 126.831,48.989 C126.731,49.109 126.651,49.249 126.601,49.409 C126.551,49.569 126.521,49.739 126.521,49.929 L126.521,52.299 L125.831,52.299 L125.831,48.109 L126.481,48.109 L126.451,48.119 Z"/>
</svg>
