<svg xmlns="http://www.w3.org/2000/svg" width="1445" height="436" viewBox="0 0 1445 436" xmlns:xlink="http://www.w3.org/1999/xlink">
  <defs>
    <linearGradient id="a" x1="50%" x2="50%" y1="96.761%" y2="15.824%">
      <stop stop-color="#009DF2" stop-opacity="0" offset="0%"/>
      <stop stop-color="#009CEE" stop-opacity=".37" offset="100%"/>
    </linearGradient>
    <path id="b" d="M0.14453125,379.458194 C0.14453125,379.458194 54.8478256,366.739421 119.417969,352.458194 C183.988112,338.176967 191.194244,309.776209 233.011719,302.458194 C274.829194,295.14018 277.705954,329.412265 353.705078,311.458194 C429.704202,293.504124 407.611667,254.216105 457.359375,249.458194 C507.107083,244.700284 537.090551,288.348458 583.732422,289.458194 C630.374293,290.567931 766.108049,125.009584 799.560547,110.458194 C833.013045,95.9068045 890.385118,165.338264 937.292969,163.458194 C984.20082,161.578124 1027.08802,66.1366606 1100.58398,69.4581944 C1174.07995,72.7797281 1209,94.5 1301.5,87 C1394,79.5 1443,2.5 1443,2.5 L1442.78516,434.562752 L0.14453125,434.562748 L0.14453125,379.458194 Z"/>
    <filter id="c" width="200%" height="200%" x="-50%" y="-50%" filterUnits="objectBoundingBox">
      <feGaussianBlur stdDeviation="7.5" in="SourceAlpha" result="shadowBlurInner1"/>
      <feOffset dy="19" in="shadowBlurInner1" result="shadowOffsetInner1"/>
      <feComposite in="shadowOffsetInner1" in2="SourceAlpha" operator="arithmetic" k2="-1" k3="1" result="shadowInnerInner1"/>
      <feColorMatrix values="0 0 0 0 0.0417034564 0 0 0 0 0.321718379 0 0 0 0 0.656887755 0 0 0 0.309414629 0" in="shadowInnerInner1"/>
    </filter>
  </defs>
  <g fill="none" fill-rule="evenodd" transform="translate(1 1)">
    <g opacity=".427">
      <use fill="url(#a)" xlink:href="#b"/>
      <use fill="black" filter="url(#c)" xlink:href="#b"/>
    </g>
    <path stroke="#5C9EED" stroke-width="2" d="M0.14453125,379.458194 C0.14453125,379.458194 54.8478256,366.739421 119.417969,352.458194 C183.988112,338.176967 191.194244,309.776209 233.011719,302.458194 C274.829194,295.14018 277.705954,329.412265 353.705078,311.458194 C429.704202,293.504124 407.611667,254.216105 457.359375,249.458194 C507.107083,244.700284 537.090551,288.348458 583.732422,289.458194 C630.374293,290.567931 766.108049,125.009584 799.560547,110.458194 C833.013045,95.9068045 890.385118,165.338264 937.292969,163.458194 C984.20082,161.578124 1027.08802,66.1366606 1100.58398,69.4581944 C1174.07995,72.7797281 1171.15625,88 1283,88 C1394.84375,88 1443,0 1443,0"/>
    <g fill="#5C9EED" stroke="#FFFFFF" stroke-width="2" transform="translate(247 67)">
      <circle cx="3.5" cy="236.5" r="3.5"/>
      <circle cx="71.5" cy="248.5" r="3.5"/>
      <circle cx="152.5" cy="221.5" r="3.5"/>
      <circle cx="232.5" cy="183.5" r="3.5"/>
      <circle cx="313.5" cy="218.5" r="3.5"/>
      <circle cx="393.5" cy="187.5" r="3.5"/>
      <circle cx="472.5" cy="111.5" r="3.5"/>
      <circle cx="552.5" cy="42.5" r="3.5"/>
      <circle cx="632.5" cy="76.5" r="3.5"/>
      <circle cx="713.5" cy="86.5" r="3.5"/>
      <circle cx="792.5" cy="19.5" r="3.5"/>
      <circle cx="872.5" cy="3.5" r="3.5"/>
      <circle cx="943.5" cy="14.5" r="3.5"/>
    </g>
  </g>
</svg>
