<svg xmlns="http://www.w3.org/2000/svg" width="1401" height="778" viewBox="0 0 1401 778">
  <path fill="#B377D8" fill-rule="evenodd" stroke="#979797" d="M1,777.5 C1,777.5 127,732 166.5,700 C206,668 249,670 277,689 C305,708 387.5,709.5 416.5,663 C445.5,616.5 500.5,649.5 500.5,649.5 C500.5,649.5 562,690 637.5,663 C713,636 721,585.5 735.5,540.5 C750,495.5 798.5,470.5 845.5,503 C912.5,546.5 1005,556.5 1054,470.5 C1065.5,449 1108,429 1139.5,446.5 C1171,464 1279.5,516 1400.5,435.5 L1400.5,1.30534319 L1,1.5 L1,777.5 Z"/>
</svg>
