<svg xmlns="http://www.w3.org/2000/svg" width="215" height="90" viewBox="0 0 215 90">
  <path fill="#FFFFFF" fill-rule="evenodd" d="M71.3495796,42.903411 C71.28971,41.9967779 70.7907968,41.1818081 70.0224704,40.7151587 C72.1910799,39.9901855 73.7576674,37.9419281 73.7576674,35.5253509 C73.7576674,32.5004629 71.3129926,30.0488871 68.3028829,30.0488871 C68.1532089,30.0488871 68.0201654,30.0588867 67.8704914,30.0705529 C67.3050564,29.3755787 66.4901648,28.863931 65.5422297,28.6706048 C64.4113598,28.4372801 63.2804898,28.7089367 62.3990764,29.3255805 C62.0498372,28.9839265 61.6008153,28.7322692 61.0852716,28.61894 C61.9999459,28.3122847 62.7150548,27.5556461 62.9312505,26.5490167 C62.9645114,26.3823562 62.9811419,26.2223621 62.9811419,26.0590349 C65.1597296,26.4323544 67.2385347,25.0140736 67.6875566,22.8341543 C68.1365785,20.6175697 66.7063606,18.4509833 64.494512,18.001 C63.7960334,17.8676716 63.0809245,17.9176697 62.4489678,18.1176623 C62.9312505,17.7010111 63.2804898,17.1343654 63.4301638,16.4677234 C63.7627726,14.8344506 62.7150548,13.2511759 61.0852716,12.9178549 C60.2038583,12.7345284 59.3224449,12.9845191 58.6572273,13.5011666 C58.6738577,12.1178845 57.7092922,10.8512648 56.2957047,10.5679419 C54.6991824,10.251287 53.135921,11.2845821 52.8033122,12.9011888 C52.7700513,13.1011814 52.7367904,13.284508 52.7367904,13.4845006 C52.3542903,12.6678642 51.6059204,12.0178882 50.6579853,11.8178956 C50.0592895,11.7012333 49.4605936,11.7678975 48.9450499,11.9845561 C49.8597242,10.8179327 50.3918983,9.33465427 50.3918983,7.73471353 C50.3918983,3.88485612 47.2820059,0.751638828 43.4237436,0.751638828 C41.9436344,0.751638828 40.5633078,1.23495426 39.4324379,2.01825858 C38.3331657,0.766638273 36.8364261,0 35.1567516,0 C32.3628375,0 30.0678367,2.09992223 29.7352279,4.80815525 C29.472467,4.77148994 29.2196843,4.74482427 28.9369668,4.74482427 C25.926857,4.74482427 23.4821822,7.19473353 23.4821822,10.2196215 C23.4821822,10.4796119 23.5154431,10.736269 23.548704,10.9862598 C23.0996821,10.6529388 22.5841384,10.4079479 22.002073,10.2896189 C19.890007,9.85630162 17.811202,11.2312507 17.3954409,13.356172 C17.096093,14.7894522 17.6282671,16.1960668 18.6593544,17.0927003 C18.4597891,17.064368 18.2602239,17.0427021 18.0606586,17.0427021 C15.84881,17.0427021 14.0527224,18.8393022 14.0527224,21.0542202 C14.0527224,23.2674716 15.8438208,25.0624051 18.0540064,25.0624051 C18.868898,25.0624051 19.6272461,24.8174142 20.2592028,24.3957631 C20.4255072,25.354061 21.0907249,26.1690308 22.0220295,26.5173512 C21.1073553,26.8840043 20.3589855,27.5673123 19.9099636,28.4506129 C19.0285502,27.1006629 17.5068649,26.2173623 15.7772991,26.2173623 C13.9978419,26.2173623 12.4345805,27.1673271 11.5697976,28.6006074 C8.60957913,28.6672716 6.21479568,31.0838487 6.21479568,34.0670716 C6.21479568,34.3503944 6.24805656,34.6170512 6.28131744,34.883708 C5.78240422,35.233695 5.41653453,35.7670086 5.283491,36.4169846 C5.0040996,37.7669346 5.86555642,39.0668864 7.21262212,39.3335432 C7.91110063,39.4835376 8.59294869,39.3168772 9.12512279,38.933558 C9.59077513,39.1835488 10.1063188,39.3668753 10.6384929,39.4835376 C9.15838368,40.0001852 7.89447019,40.95015 6.97979595,42.1834377 C6.23807829,41.4001333 5.19202358,40.9001518 4.03620795,40.9001518 C1.81271803,40.831821 0,42.6484204 0,44.881671 C0,47.1149217 1.80440281,48.923188 4.03454491,48.923188 C4.61661033,48.923188 5.16541487,48.8065257 5.66432809,48.589867 C6.1665674,50.6731232 7.51030701,52.4397245 9.31803591,53.4730195 C8.00423109,53.4563535 6.82346981,54.3729862 6.55073058,55.7062701 C6.23475221,57.2145476 7.21594821,58.6828266 8.71268787,58.9894819 C8.49649214,59.706122 8.28029641,60.5227584 8.28029641,61.389393 C8.28029641,64.0642939 10.4422537,66.2392134 13.1031242,66.2392134 C13.2527982,66.2392134 13.4024721,66.2258805 13.5521461,66.2108811 C14.0177984,67.194178 14.9324727,67.9441502 16.0633426,68.1774749 C17.0279082,68.3774675 17.9758433,68.1608089 18.7408436,67.6724936 C18.7242131,67.7724899 18.7242131,67.877486 18.7242131,67.9824821 C18.7242131,70.3823932 20.6533443,72.332321 23.0481277,72.332321 C25.0936719,72.332321 26.8066073,70.8990408 27.2556292,68.9824451 C27.7212815,69.1657716 28.2368252,69.2657679 28.7689993,69.2657679 C29.8000866,69.2657679 30.7313913,68.9157809 31.4797611,68.3158031 C32.1117179,69.2991 33.8579142,71.0657013 34.872371,71.649013 L34.872371,79.9970371 C35.0885668,80.757009 34.6561753,85.0751824 28.7523689,84.996852 L8.31522033,84.996852 L8.31522033,86.6634569 L64.8587186,86.6634569 L64.8587186,84.996852 L49.5420827,84.996852 C49.5420827,85.0751824 40.0910033,84.9635199 39.9130576,79.9970371 L39.9130576,71.5923484 C41.3432755,71.0357024 42.8865804,69.5424244 43.7114503,68.2691382 C44.0440591,69.56909 45.0817986,70.6357172 46.4820817,70.91904 C47.8890169,71.2023629 49.2676805,70.624051 50.0775829,69.5457576 C51.2167681,70.7957113 52.8548665,71.5790156 54.684215,71.5790156 C57.478129,71.5790156 59.8429777,69.7290841 60.6345867,67.1958446 C61.0470216,67.4958335 61.5293044,67.7291582 62.0648046,67.8291545 C64.0172183,68.2291397 65.9164146,66.9625199 66.3122191,65.0125921 C66.3887191,64.629273 66.4020235,64.2459539 66.3621104,63.8793008 C69.1177745,63.2293248 71.17496,60.7460835 71.17496,57.7961927 C71.17496,56.4462427 70.7425685,55.196289 70.0208074,54.17966 C70.2203727,54.2629903 70.4299162,54.3296545 70.647775,54.3629866 C72.610167,54.7629717 74.5060372,53.496352 74.9051678,51.5464242 C75.2211462,49.9798156 74.4894068,48.4632051 73.1922324,47.6965668 C74.4894068,47.7132328 75.6701681,46.7966001 75.9362551,45.4633162 C76.2522335,43.9633717 75.2710375,42.4967594 73.7742978,42.1801044 C72.8928845,41.9967779 72.0281016,42.2801007 71.3961448,42.8300804 L71.3495796,42.903411 Z M105.237429,24.9990741 L112.910714,24.9990741 L113.086997,48.3315433 L116.413085,48.3315433 L116.413085,53.3646902 L112.910714,53.3646902 L112.910714,61.6643828 L106.584494,61.6643828 L106.584494,53.3646902 L93.1304677,53.3646902 L93.1304677,47.9398911 L105.237429,24.9990741 Z M106.340027,33.3320988 L99.782644,48.3315433 L106.43482,48.3315433 L106.43482,33.3320988 L106.340027,33.3320988 Z M126.163512,25.1324025 L126.163512,33.4654272 L129.767329,33.3320988 L129.767329,38.0819229 L126.161849,38.2185845 L126.161849,53.568016 C126.161849,54.6963075 126.324827,55.4962779 126.655773,55.9712603 C126.971751,56.4462427 131.129362,56.5545721 131.378818,56.664568 L131.378818,61.6643828 L126.689034,61.6643828 C125.292077,61.6643828 124.161207,61.5677197 123.279794,61.3743935 C122.39838,61.1810674 121.716532,60.794415 121.25088,60.2144365 C120.785228,59.6311248 120.452619,58.8678197 120.286314,57.9178549 C120.103379,56.9678901 119.837292,55.9095959 119.837292,54.4679827 L119.837292,38.2185845 L116.394791,38.0852561 L116.394791,33.3320988 L119.837292,33.4654272 L119.837292,25.1324025 L126.123599,25.1324025 L126.163512,25.1324025 Z M140.024984,34.0487389 L140.024984,37.7452687 L140.131419,37.7452687 C140.871474,36.4119847 141.769518,35.3420244 142.828877,34.5370542 C143.88491,33.7337506 145.173769,33.3320988 146.687139,33.3320988 C146.900009,33.3320988 147.11953,33.3404318 147.34903,33.3570979 C147.57853,33.3737639 147.798052,33.4004296 148.010922,33.4337617 L148.010922,40.2168438 C147.623433,40.1835117 147.245922,40.1668457 146.875063,40.1501796 C146.504204,40.1335136 146.126693,40.1335136 145.737541,40.1335136 C145.102258,40.1335136 144.466975,40.2168438 143.833355,40.4001704 C143.198072,40.5834969 142.616007,40.8668197 142.087159,41.2501389 C141.558311,41.6501241 141.135898,42.1667716 140.818256,42.8000815 C140.502278,43.4500574 140.340963,44.2166957 140.340963,45.1499944 L140.340963,61.6643828 L133.043525,61.6643828 L133.043525,34.0487389 L140.024984,34.0487389 Z M157.16099,51.0647754 C157.16099,51.9064109 157.222523,52.7197141 157.343925,53.5063516 C157.466991,54.2929891 157.666556,54.9929632 157.945947,55.6029406 C158.225339,56.2162512 158.594534,56.7028999 159.043556,57.0728862 C159.49923,57.4395393 160.058013,57.6228658 160.719905,57.6228658 C161.940579,57.6228658 162.831971,57.1862153 163.38909,56.3112477 C163.94621,55.4379467 164.330373,54.1113292 164.539917,52.3280619 L171.025789,52.3280619 C170.876115,55.6112737 170.011332,58.1111811 168.398179,59.8277842 C166.785026,61.5393874 164.257199,62.3943558 160.798068,62.3943558 C158.170458,62.3943558 156.141544,61.9577053 154.678066,61.0844043 C153.214587,60.2094367 152.133608,59.0561461 151.43513,57.6228658 C150.736651,56.1895856 150.30426,54.5796452 150.154586,52.7980445 C149.988281,51.0147772 149.92176,49.2315099 149.92176,47.4482427 C149.92176,45.5599793 150.038173,43.7417133 150.30426,41.9934447 C150.553716,40.2468427 151.08589,38.6902337 151.867521,37.3269509 C152.649152,35.9603348 153.780022,34.8770416 155.243501,34.073738 C156.706979,33.2704344 158.652741,32.8687826 161.097416,32.8687826 C163.192851,32.8687826 164.905787,33.20877 166.252852,33.8904115 C167.583288,34.5737195 168.647636,35.5353505 169.412636,36.773638 C170.177636,38.0169253 170.69318,39.520203 170.975897,41.2851376 C171.258615,43.0517388 171.391658,45.0183327 171.391658,47.1849191 L171.391658,48.8115255 L157.157664,48.8115255 L157.157664,51.066442 L157.16099,51.0647754 Z M164.32871,41.6534573 C164.228928,40.831821 164.042667,40.131847 163.779906,39.5535351 C163.520471,38.9785563 163.152938,38.5419059 162.682297,38.2435836 C162.211655,37.9469279 161.609633,37.7986001 160.877894,37.7986001 C160.146155,37.7986001 159.54247,37.9652605 159.071828,38.2985815 C158.606176,38.6285693 158.240306,39.0652198 157.957589,39.6068664 C157.674871,40.1501796 157.475306,40.7534906 157.358893,41.4167994 C157.24248,42.0834414 157.175958,42.7500833 157.175958,43.4167253 L157.175958,44.5166846 L164.559873,44.5166846 C164.526613,43.4333914 164.460091,42.4834265 164.360308,41.6667901 L164.32871,41.6534573 Z M181.391542,51.066442 C181.391542,51.9164105 181.453075,52.7330469 181.574477,53.5163512 C181.69588,54.2996556 181.897108,54.9996296 182.176499,55.6162735 C182.455891,56.2329173 182.825086,56.7162327 183.274108,57.0828858 C183.728119,57.4495389 184.288565,57.6328654 184.950457,57.6328654 C186.171131,57.6328654 187.062523,57.1995482 187.619642,56.3329136 C188.176762,55.466279 188.560925,54.1329951 188.770469,52.3497278 L195.256341,52.3497278 C195.106667,55.6329395 194.241884,58.1328469 192.628731,59.84945 C191.015578,61.5660531 188.487751,62.4160216 185.02862,62.4160216 C182.40101,62.4160216 180.372096,61.9827043 178.908618,61.1160698 C177.445139,60.2494352 176.36416,59.0994778 175.665682,57.6661975 C174.967203,56.2329173 174.534812,54.6329766 174.385138,52.8497093 C174.218833,51.066442 174.152312,49.2831747 174.152312,47.4999074 C174.152312,45.6166438 174.268725,43.8000444 174.534812,42.0501093 C174.784268,40.3001741 175.316442,38.7502315 176.098073,37.3836154 C176.879704,36.0169994 178.010574,34.9337062 179.474053,34.1337358 C180.937531,33.3337654 182.883293,32.9337802 185.327968,32.9337802 C187.406773,32.9337802 189.136339,33.2837673 190.483404,33.9670753 C191.81384,34.6503833 192.878188,35.6170142 193.643188,36.8503018 C194.408188,38.1002555 194.923732,39.6002 195.20645,41.3668012 C195.489167,43.1334025 195.622211,45.0999963 195.622211,47.2665827 L195.622211,48.8998556 L181.336662,48.8998556 L181.336662,51.1497722 L181.391542,51.066442 Z M188.559262,41.6667901 C188.45948,40.8501537 188.273219,40.1501796 188.010458,39.5668679 C187.751023,39.0002222 187.38349,38.5669049 186.912849,38.266916 C186.442207,37.9669272 185.840185,37.8335988 185.108446,37.8335988 C184.376707,37.8335988 183.773022,38.0002592 183.30238,38.3335802 C182.836728,38.6669012 182.470858,39.1002185 182.188141,39.6501981 C181.905423,40.2001778 181.705858,40.8001555 181.589445,41.4667975 C181.473032,42.1334395 181.40651,42.8000815 181.40651,43.4667235 L181.40651,44.5666827 L188.790426,44.5666827 C188.757165,43.4833895 188.690643,42.5334247 188.59086,41.7167883 L188.559262,41.6667901 Z M99.4916113,87.1801044 C99.292046,87.2967668 99.0209698,87.355098 98.6700675,87.355098 C98.3707196,87.355098 98.1378934,87.2717677 97.971589,87.1051072 C97.8052846,86.9384467 97.705502,86.6717899 97.705502,86.2884708 C97.3895236,86.6717899 97.0236539,86.9384467 96.6078929,87.1051072 C96.1921319,87.2717677 95.74311,87.355098 95.2608272,87.355098 C94.9448488,87.355098 94.6455009,87.3217659 94.3627834,87.2517685 C94.0800659,87.181771 93.8472397,87.0684419 93.631044,86.9184475 C93.4314787,86.7634532 93.2651743,86.5634606 93.1487612,86.3184697 C93.0323481,86.0684789 92.9658264,85.7684901 92.9658264,85.418503 C92.9658264,85.0185178 93.0323481,84.6968631 93.1653917,84.4435391 C93.2984352,84.1935484 93.48137,83.988556 93.6975658,83.8268953 C93.9137615,83.6735676 94.1798485,83.5535721 94.462566,83.4719084 C94.7452835,83.3885782 95.0446315,83.321914 95.3439794,83.2719159 C95.6599578,83.2052517 95.9593057,83.1602533 96.2420232,83.1269212 C96.5247407,83.0935891 96.7741973,83.0485908 96.990393,82.9935928 C97.2065887,82.9319284 97.3895236,82.8469316 97.5059367,82.7336025 C97.6389802,82.6219399 97.705502,82.456946 97.705502,82.2402874 C97.705502,81.9902967 97.6556106,81.7903041 97.555828,81.6353098 C97.4726758,81.4853154 97.3396323,81.368653 97.1899583,81.2853228 C97.0402843,81.2019925 96.8739799,81.1519944 96.6910451,81.1236621 C96.5081102,81.0936632 96.3251754,81.081997 96.158871,81.081997 C95.6765882,81.081997 95.2774576,81.1819933 94.9448488,81.3653198 C94.6288704,81.5486463 94.4459356,81.8986334 94.4293052,82.4152809 L93.2818048,82.4152809 C93.2984352,81.9819636 93.3815874,81.6153105 93.5478918,81.3153217 C93.7141962,81.0153328 93.9303919,80.7820081 94.196479,80.5986815 C94.462566,80.415355 94.7785444,80.2820266 95.1277837,80.1986963 C95.4770229,80.1320321 95.8428926,80.082034 96.2420232,80.082034 C96.5580016,80.082034 96.8739799,80.1153661 97.1733279,80.1486982 C97.4893062,80.1986963 97.7720237,80.2820266 98.0214803,80.432021 C98.270937,80.5653494 98.4705022,80.765342 98.6368066,81.0153328 C98.7864806,81.2653235 98.8696328,81.5986445 98.8696328,81.9986297 L98.8696328,85.5984964 C98.8696328,85.8651531 98.8862633,86.0651457 98.9195241,86.1984741 C98.952785,86.3318025 99.0525677,86.3984667 99.2355025,86.3984667 C99.3352852,86.3984667 99.4516982,86.3818007 99.5847418,86.3484686 L99.5847418,87.2484352 L99.4916113,87.1801044 Z M97.6290019,83.5969038 C97.4876432,83.7068997 97.2963931,83.7852302 97.063567,83.8352283 C96.8307408,83.8802267 96.5862733,83.9185586 96.3318276,83.9518907 C96.0723927,83.9852228 95.8162839,84.0185549 95.555186,84.06022 C95.2940881,84.1002185 95.0595989,84.1652161 94.8533814,84.2552128 C94.6471639,84.346876 94.4775334,84.4718714 94.347816,84.6385319 C94.2197616,84.8051924 94.1532398,85.0335173 94.1532398,85.3218399 C94.1532398,85.5051665 94.1914899,85.6651605 94.2696529,85.7951557 C94.3444899,85.9284841 94.4442726,86.0284804 94.5656748,86.1118107 C94.68874,86.1951409 94.8317618,86.2451391 94.9914141,86.2784712 C95.141088,86.3118033 95.3240229,86.3284693 95.4903273,86.3284693 C95.856197,86.3284693 96.1888058,86.2784712 96.4548928,86.1784749 C96.7209799,86.0784786 96.9371756,85.9451502 97.10348,85.7784897 C97.2697844,85.6118292 97.4028279,85.4451687 97.4693497,85.2618422 C97.5525019,85.0785156 97.5857628,84.8951891 97.5857628,84.7451946 L97.5857628,83.5785712 L97.6290019,83.5969038 Z M106.273505,77.5587941 L109.306897,85.6668272 L112.353594,77.5587941 L114.09979,77.5587941 L114.09979,87.2084367 L112.885768,87.2084367 L112.885768,79.1804007 L112.852507,79.1804007 L109.842398,87.2034369 L108.761419,87.2034369 L105.751309,79.1804007 L105.718048,79.1804007 L105.718048,87.1967705 L104.504026,87.1967705 L104.504026,77.5471279 L106.266853,77.5471279 L106.273505,77.5587941 Z M120.214803,81.4369838 C119.927097,81.1953261 119.539608,81.0703307 119.055662,81.0703307 C118.639901,81.0703307 118.290661,81.1503278 118.007944,81.3036554 C117.725226,81.4536499 117.509031,81.6603089 117.342726,81.9119662 C117.176422,82.161957 117.060009,82.4452798 116.976857,82.7786008 C116.893704,83.1119218 116.860444,83.4452428 116.860444,83.7952298 C116.860444,84.1118847 116.893704,84.4285397 116.976857,84.7285286 C117.043378,85.0285175 117.176422,85.2951743 117.326096,85.545165 C117.47577,85.7784897 117.691966,85.9784823 117.958053,86.1118107 C118.22414,86.2451391 118.523488,86.3284693 118.889357,86.3284693 C119.454792,86.3284693 119.887184,86.1784749 120.219793,85.878486 C120.535771,85.5784971 120.735336,85.1618459 120.801858,84.6118662 L121.965989,84.6118662 C121.832945,85.4618347 121.516967,86.1451428 121.001423,86.6117922 C120.48588,87.0784415 119.787401,87.3117662 118.889357,87.3117662 C118.357183,87.3117662 117.891531,87.228436 117.47577,87.0451094 C117.060009,86.8617829 116.7274,86.6284582 116.444683,86.3118033 C116.161965,85.9951483 115.9624,85.6118292 115.829356,85.1785119 C115.679682,84.7285286 115.61316,84.2618792 115.61316,83.7285656 C115.61316,83.195252 115.679682,82.7119366 115.812726,82.2619533 C115.945769,81.7953039 116.145335,81.4119847 116.428052,81.0619977 C116.694139,80.7120107 117.043378,80.4620199 117.459139,80.2620273 C117.8749,80.0620347 118.357183,79.9620384 118.889357,79.9620384 C119.288488,79.9620384 119.654358,80.0120366 120.003597,80.0953668 C120.352836,80.1953631 120.652184,80.3286915 120.918271,80.5286841 C121.184358,80.7286767 121.400554,80.9786675 121.566858,81.2786563 C121.733163,81.5786452 121.849576,81.9286323 121.882837,82.3452835 L120.702075,82.3452835 C120.618923,81.8953002 120.419358,81.5619792 120.13664,81.3119884 L120.214803,81.4369838 Z M124.75824,77.5604607 L124.75824,82.3719492 L129.639274,77.5621273 L131.297329,77.5621273 L127.239502,81.4453168 L131.456981,87.1951039 L129.838839,87.1951039 L126.363077,82.3119514 L124.756577,83.8118959 L124.756577,87.1784378 L123.476033,87.1784378 L123.476033,77.5287952 L124.756577,77.5287952 L124.75824,77.5604607 Z M132.348373,87.2101033 L133.495873,87.2101033 L133.495873,80.2136958 L132.348373,80.2136958 L132.348373,87.2001037 L132.348373,87.2101033 Z M132.348373,78.9670753 L133.495873,78.9670753 L133.495873,77.5637939 L132.348373,77.5637939 L132.348373,78.9687419 L132.348373,78.9670753 Z M136.356309,80.225362 L136.356309,81.3369875 L136.381255,81.3369875 C136.858548,80.487019 137.611907,80.0670346 138.647984,80.0670346 C139.105321,80.0670346 139.487821,80.1303655 139.795484,80.2553609 C140.098158,80.3853561 140.344289,80.5603496 140.533876,80.7853413 C140.723463,81.0119996 140.854843,81.280323 140.933006,81.5919781 C141.007843,81.9036332 141.046093,82.2486204 141.046093,82.6252731 L141.046093,87.220103 L139.898593,87.220103 L139.898593,82.4869449 C139.898593,82.0536276 139.775528,81.710307 139.524408,81.4569831 C139.271625,81.2069923 138.925712,81.0786638 138.485006,81.0786638 C138.135766,81.0786638 137.831429,81.1286619 137.57532,81.2286582 C137.319212,81.3286545 137.104679,81.4786489 136.935048,81.6786415 C136.763755,81.8786341 136.635701,82.0952928 136.552548,82.3619496 C136.464407,82.6286063 136.419505,82.9119292 136.419505,83.2285841 L136.419505,87.1784378 L135.27533,87.1784378 L135.27533,80.1953631 L136.356309,80.1953631 L136.356309,80.225362 Z M143.648757,85.6551609 C143.756855,85.8301544 143.898214,85.9718159 144.072834,86.0718122 C144.249116,86.1768083 144.447019,86.2518055 144.66654,86.2968038 C144.882736,86.3434688 145.115562,86.363468 145.348388,86.363468 C145.514693,86.363468 145.714258,86.3518018 145.913823,86.3251361 C146.113389,86.2968038 146.279693,86.2468057 146.462628,86.1751417 C146.628932,86.101811 146.761976,85.9968149 146.861758,85.8584867 C146.961541,85.7184919 147.011432,85.5418318 147.011432,85.3251731 C147.011432,85.0251843 146.895019,84.8018592 146.678824,84.6485315 C146.445997,84.4985371 146.16328,84.3818747 145.830671,84.2818784 C145.498062,84.1985482 145.132193,84.115218 144.733062,84.0318877 C144.333932,83.9652235 143.968062,83.8485612 143.635453,83.7152328 C143.286214,83.5819044 143.020127,83.3819118 142.787301,83.131921 C142.554474,82.8819303 142.438061,82.5319433 142.438061,82.0819599 C142.438061,81.7319729 142.521213,81.431984 142.670887,81.1819933 C142.820561,80.9320025 143.020127,80.7320099 143.269583,80.5653494 C143.502409,80.415355 143.785127,80.2986926 144.101105,80.2153624 C144.400453,80.1486982 144.716432,80.0987 145.01578,80.0987 C145.39828,80.0987 145.764149,80.1320321 146.096758,80.1986963 C146.429367,80.2653605 146.728715,80.3820229 146.978172,80.5486834 C147.227628,80.7153439 147.427193,80.9486686 147.593498,81.2319914 C147.743172,81.5153142 147.826324,81.8819673 147.859585,82.2986186 L146.712085,82.2986186 C146.695454,82.0819599 146.628932,81.8819673 146.52915,81.7319729 C146.429367,81.5819784 146.296324,81.4653161 146.14665,81.3819859 C145.980345,81.2986556 145.814041,81.2319914 145.631106,81.1986593 C145.448171,81.1653272 145.248606,81.1486612 145.065671,81.1486612 C144.899366,81.1486612 144.716432,81.1653272 144.550127,81.1986593 C144.367192,81.2319914 144.217518,81.2819896 144.067844,81.3486538 C143.91817,81.415318 143.801757,81.4986482 143.718605,81.6153105 C143.618823,81.7319729 143.585562,81.8819673 143.585562,82.0652939 C143.585562,82.2652865 143.652083,82.431947 143.785127,82.5652754 C143.91817,82.6986038 144.101105,82.8152661 144.317301,82.8985963 C144.533497,82.9819266 144.766323,83.0619236 145.04904,83.115255 C145.315128,83.178586 145.581215,83.2319173 145.847302,83.2985815 C146.130019,83.3652457 146.412737,83.4319099 146.678824,83.5319062 C146.944911,83.6269027 147.194367,83.7485649 147.410563,83.8952261 C147.626759,84.0452205 147.793063,84.2285471 147.926107,84.4618718 C148.04252,84.6785304 148.109042,84.9618533 148.109042,85.2951743 C148.109042,85.7118255 148.025889,86.0618125 147.85127,86.3451354 C147.668335,86.6284582 147.435509,86.8451168 147.152791,87.0201104 C146.870074,87.1867709 146.554095,87.3117662 146.193215,87.380097 C145.837323,87.4467612 145.478106,87.4800933 145.128867,87.4800933 C144.746366,87.4800933 144.380497,87.4467612 144.031257,87.363431 C143.682018,87.2967668 143.372692,87.1634384 143.103279,86.9634458 C142.837192,86.7801193 142.620996,86.5467946 142.454692,86.2468057 C142.305018,85.9468168 142.205235,85.5801637 142.188605,85.1468464 L143.336105,85.1468464 C143.352736,85.3968372 143.402627,85.6134958 143.51904,85.7884893 L143.648757,85.6551609 Z M154.448566,86.7717862 C153.933022,87.1667716 153.267804,87.363431 152.486174,87.363431 C151.937369,87.363431 151.455086,87.2751009 151.039325,87.0967742 C150.640195,86.9134477 150.290955,86.6634569 150.008238,86.3384689 C149.72552,86.0151476 149.525955,85.6268286 149.376281,85.1768453 C149.243238,84.726862 149.160085,84.2368801 149.143455,83.7052331 C149.143455,83.1719196 149.226607,82.6886041 149.392912,82.2452872 C149.559216,81.7953039 149.792042,81.4119847 150.07476,81.0953298 C150.374108,80.7620088 150.723347,80.5120181 151.122477,80.3453576 C151.521608,80.162031 151.97063,80.0620347 152.436282,80.0620347 C153.068239,80.0620347 153.583783,80.1953631 153.982913,80.4453539 C154.398674,80.6953446 154.714653,81.0286656 154.964109,81.4286508 C155.213566,81.8119699 155.37987,82.2452872 155.479653,82.7286026 C155.579435,83.195252 155.612696,83.6452354 155.596066,84.0618866 L150.374108,84.0618866 C150.374108,84.3618755 150.407368,84.6618644 150.490521,84.9285212 C150.573673,85.195178 150.706716,85.4451687 150.889651,85.6451613 C151.072586,85.8618199 151.288782,86.0284804 151.571499,86.1451428 C151.854217,86.2618051 152.186826,86.3284693 152.552695,86.3284693 C153.034978,86.3284693 153.434109,86.211807 153.750087,85.9951483 C154.066065,85.7618236 154.265631,85.4285026 154.365413,84.9618533 L155.496283,84.9618533 C155.346609,85.7451576 155.014001,86.3284693 154.481826,86.7284545 L154.448566,86.7717862 Z M154.182478,82.2836191 C154.082696,82.0386282 153.949652,81.828636 153.766717,81.6536425 C153.600413,81.4786489 153.384217,81.3369875 153.151391,81.2369912 C152.918565,81.1303285 152.652478,81.0803304 152.36976,81.0803304 C152.070413,81.0803304 151.804325,81.1303285 151.571499,81.2353246 C151.338673,81.3353209 151.139108,81.4819821 150.956173,81.6619755 C150.789869,81.845302 150.656825,82.0452946 150.557042,82.2786193 C150.45726,82.511944 150.407368,82.7619347 150.390738,83.0452576 L154.398674,83.0452576 C154.382044,82.7786008 154.332152,82.511944 154.215739,82.2786193 L154.182478,82.2836191 Z M159.504219,88.1334025 C159.371176,88.4783897 159.238132,88.7667123 159.121719,89.000037 C158.988676,89.2333617 158.855632,89.4266879 158.689328,89.5750157 C158.539654,89.7250102 158.356719,89.8316729 158.173784,89.9000037 C157.990849,89.9666679 157.758023,90 157.508567,90 C157.375523,90 157.24248,89.991667 157.109436,89.9733343 C156.976393,89.9566683 156.843349,89.9233362 156.726936,89.8783378 L156.726936,88.8117107 C156.826719,88.8450428 156.943132,88.8950409 157.076175,88.928373 C157.209219,88.9617051 157.325632,88.9783712 157.408784,88.9783712 C157.64161,88.9783712 157.841175,88.911707 157.990849,88.8117107 C158.157154,88.7117144 158.273567,88.5450539 158.356719,88.3450613 L158.839002,87.1617718 L156.078349,80.2120292 L157.375523,80.2120292 L159.421067,85.9284841 L159.437698,85.9284841 L161.383459,80.2120292 L162.597481,80.2120292 L159.53748,88.1284027 L159.504219,88.1334025 Z M172.276398,78.8737454 C171.860637,78.5637569 171.311832,78.407096 170.646615,78.407096 C170.380528,78.407096 170.114441,78.4354283 169.848354,78.4904263 C169.598897,78.5404244 169.366071,78.6337543 169.166506,78.7570831 C168.96694,78.8854117 168.800636,79.0537388 168.684223,79.2653976 C168.56781,79.4653902 168.501288,79.732047 168.501288,80.0487019 C168.501288,80.3486908 168.601071,80.5820155 168.767375,80.7820081 C168.95031,80.9653346 169.183136,81.1153291 169.482484,81.2319914 C169.781832,81.3486538 170.114441,81.44865 170.48031,81.5319803 L171.61118,81.781971 C171.99368,81.8819673 172.376181,81.9819636 172.74205,82.098626 C173.10792,82.2319544 173.440529,82.3819488 173.739877,82.5986075 C174.039225,82.8152661 174.272051,83.0652568 174.438355,83.3819118 C174.62129,83.6985667 174.704442,84.0985519 174.704442,84.5652013 C174.704442,85.0818488 174.588029,85.5318322 174.371833,85.8818192 C174.155638,86.2484723 173.85629,86.5484612 173.49042,86.7817859 C173.141181,87.0151106 172.74205,87.181771 172.293028,87.2817673 C171.860637,87.3984297 171.411615,87.4484278 170.962593,87.4484278 C170.430419,87.4484278 169.914875,87.3817636 169.432593,87.2484352 C168.95031,87.1151068 168.534549,86.9151143 168.168679,86.6317914 C167.802809,86.3651346 167.520092,86.0151476 167.303896,85.5818303 C167.104331,85.148513 166.987918,84.6485315 166.987918,84.0652198 L168.20194,84.0652198 C168.20194,84.481871 168.285092,84.8318581 168.434766,85.1151809 C168.58444,85.4151698 168.800636,85.6484945 169.050092,85.8484871 C169.316179,86.0318136 169.615527,86.1818081 169.948136,86.2651383 C170.297375,86.3484686 170.646615,86.3984667 170.995854,86.3984667 C171.295202,86.3984667 171.577919,86.3818007 171.877267,86.3151365 C172.173289,86.2651383 172.437713,86.165142 172.670539,86.0318136 C172.903366,85.9151513 173.0863,85.7318247 173.235974,85.4985001 C173.369018,85.2818414 173.45217,84.9985186 173.45217,84.6485315 C173.45217,84.3152105 173.352387,84.0485538 173.186083,83.8318951 C173.003148,83.6319025 172.770322,83.465242 172.470974,83.3319136 C172.171626,83.1985852 171.84567,83.0985889 171.473148,83.0152587 L170.350593,82.765268 C169.968093,82.6819377 169.590582,82.5819414 169.219723,82.4652791 C168.853853,82.3486167 168.521244,82.1986223 168.221896,82.0152957 C167.939179,81.8319692 167.706353,81.5986445 167.523418,81.2986556 C167.357114,81.0153328 167.257331,80.6486797 167.257331,80.1986963 C167.257331,79.7153809 167.357114,79.2987297 167.556679,78.9320766 C167.756244,78.5820896 168.022331,78.2821007 168.35494,78.048776 C168.684223,77.8321173 169.053419,77.6487908 169.46918,77.5487945 C169.884941,77.4321321 170.317332,77.382134 170.761365,77.382134 C171.260278,77.382134 171.720941,77.4487982 172.141691,77.5654605 C172.562442,77.6821229 172.939953,77.8654494 173.255931,78.1154402 C173.571909,78.3654309 173.829681,78.6820858 174.014279,79.065405 C174.197214,79.4487241 174.296996,79.8987075 174.313627,80.432021 L173.099605,80.432021 C173.033083,79.732047 172.783626,79.2320655 172.351235,78.9320766 L172.276398,78.8737454 Z M175.851943,82.2786193 C175.984986,81.828636 176.201182,81.4453168 176.50053,81.1119959 C176.799878,80.7786749 177.149117,80.5120181 177.564878,80.3286915 C177.99727,80.1286989 178.479552,80.0453687 179.028357,80.0453687 C179.593792,80.0453687 180.076075,80.1286989 180.491836,80.3286915 C180.907597,80.5120181 181.273466,80.7786749 181.556184,81.0953298 C181.838901,81.4119847 182.055097,81.8119699 182.204771,82.2452872 C182.354445,82.6786045 182.420967,83.1619199 182.420967,83.6785675 C182.420967,84.195215 182.354445,84.6785304 182.204771,85.1118477 C182.055097,85.561831 181.838901,85.9451502 181.556184,86.2784712 C181.273466,86.6117922 180.924227,86.8617829 180.508466,87.0451094 C180.092705,87.228436 179.610422,87.3117662 179.044987,87.3117662 C178.496183,87.3117662 178.0139,87.2117699 177.598139,87.0284434 C177.182378,86.8451168 176.816508,86.5784601 176.533791,86.2618051 C176.251073,85.9284841 176.034878,85.545165 175.885204,85.0951817 C175.75216,84.6451983 175.669008,84.1785489 175.669008,83.6619014 C175.669008,83.1452539 175.75216,82.6619384 175.885204,82.2119551 L175.851943,82.2786193 Z M177.016074,84.8451909 C177.132487,85.1618459 177.282161,85.4451687 177.481726,85.6618273 C177.681291,85.878486 177.914117,86.0451465 178.180204,86.1618088 C178.446291,86.2784712 178.729009,86.3284693 179.028357,86.3284693 C179.327705,86.3284693 179.610422,86.2784712 179.876509,86.1618088 C180.142596,86.0451465 180.375423,85.878486 180.574988,85.6451613 C180.774553,85.4118366 180.924227,85.1451798 181.04064,84.8118588 C181.157053,84.4785378 181.206945,84.0952187 181.206945,83.6785675 C181.206945,83.2452502 181.157053,82.8785971 181.04064,82.5452761 C180.940858,82.2119551 180.774553,81.9286323 180.574988,81.7119736 C180.375423,81.4786489 180.142596,81.3119884 179.89314,81.1953261 C179.627053,81.0786638 179.344335,81.0119996 179.044987,81.0119996 C178.76227,81.0119996 178.479552,81.0619977 178.213465,81.17866 C177.947378,81.2953224 177.714552,81.4619829 177.514987,81.6953076 C177.315421,81.9119662 177.165747,82.1952891 177.049334,82.511944 C176.932921,82.8285989 176.88303,83.2119181 176.88303,83.6285693 C176.88303,84.0452205 176.932921,84.4285397 177.049334,84.7451946 L177.016074,84.8451909 Z M183.817924,87.1951039 L184.965424,87.1951039 L184.965424,77.5454613 L183.817924,77.5454613 L183.817924,87.1784378 L183.817924,87.1951039 Z M191.434666,87.1951039 L191.434666,86.0784786 L191.401405,86.0784786 C191.168579,86.5117959 190.8526,86.8284508 190.4701,87.0284434 C190.10423,87.228436 189.655208,87.3284323 189.139665,87.3284323 C188.690643,87.3284323 188.308143,87.2617681 187.992164,87.1451057 C187.692816,87.0117773 187.44336,86.8451168 187.260425,86.6284582 C187.07749,86.3951335 186.944447,86.1284767 186.861294,85.8118218 C186.794773,85.4951668 186.744881,85.1451798 186.744881,84.7785267 L186.744881,80.1953631 L187.892382,80.1953631 L187.892382,84.9118551 C187.892382,85.3451724 188.025425,85.6784934 188.274882,85.9284841 C188.540969,86.1784749 188.873578,86.2951372 189.3226,86.2951372 C189.671839,86.2951372 189.971187,86.2451391 190.237274,86.1451428 C190.503361,86.0284804 190.719557,85.878486 190.885861,85.6784934 C191.068796,85.4785008 191.185209,85.2451761 191.268361,84.9785193 C191.368144,84.7118625 191.401405,84.4118736 191.401405,84.0952187 L191.401405,80.1636976 L192.548905,80.1636976 L192.548905,87.1467723 L191.467926,87.1467723 L191.434666,87.1951039 Z M197.222059,80.2120292 L197.222059,81.2119921 L195.825102,81.2119921 L195.825102,85.545165 C195.825102,85.6784934 195.841732,85.7784897 195.858363,85.8618199 C195.891624,85.9451502 195.924885,85.9951483 195.991406,86.0451465 C196.057928,86.0784786 196.14108,86.1118107 196.257493,86.1284767 C196.373906,86.1451428 196.52358,86.1451428 196.689885,86.1451428 L197.222059,86.1451428 L197.222059,87.1617718 L196.340646,87.1617718 C196.057928,87.1617718 195.791841,87.1451057 195.592276,87.0951076 C195.39271,87.0451094 195.209776,86.9784452 195.076732,86.8784489 C194.960319,86.7617866 194.860536,86.6117922 194.794015,86.4117996 C194.744123,86.211807 194.710862,85.9451502 194.710862,85.6284952 L194.710862,81.1953261 L193.530101,81.1953261 L193.530101,80.1786971 L194.727493,80.1786971 L194.727493,78.0954409 L195.874993,78.0954409 L195.874993,80.1786971 L197.27195,80.1786971 L197.222059,80.2120292 Z M198.552494,87.1951039 L199.699995,87.1951039 L199.699995,80.2120292 L198.552494,80.2120292 L198.552494,87.1951039 Z M198.552494,78.9454094 L199.699995,78.9454094 L199.699995,77.5287952 L198.552494,77.5287952 L198.552494,78.9287434 L198.552494,78.9454094 Z M201.313147,82.2619533 C201.462821,81.8119699 201.679017,81.4286508 201.961735,81.0953298 C202.244452,80.7620088 202.610322,80.495352 203.026083,80.3120255 C203.458474,80.1120329 203.940757,80.0287026 204.489561,80.0287026 C205.054996,80.0287026 205.537279,80.1120329 205.95304,80.3120255 C206.368801,80.495352 206.718041,80.7620088 207.017388,81.0786638 C207.300106,81.3953187 207.516302,81.7953039 207.665976,82.2286212 C207.81565,82.6619384 207.882171,83.1452539 207.882171,83.6619014 C207.882171,84.1785489 207.81565,84.6618644 207.665976,85.0951817 C207.516302,85.545165 207.300106,85.9284841 207.017388,86.2451391 C206.734671,86.561794 206.385432,86.8284508 205.969671,87.0117773 C205.55391,87.1951039 205.071627,87.2784341 204.506192,87.2784341 C203.957387,87.2784341 203.475105,87.1784378 203.059344,86.9951113 C202.643583,86.8117847 202.277713,86.545128 201.994995,86.228473 C201.712278,85.9118181 201.496082,85.5118329 201.346408,85.0618496 C201.196734,84.6118662 201.130212,84.1452168 201.130212,83.6285693 C201.130212,83.1119218 201.196734,82.6286063 201.346408,82.1952891 L201.313147,82.2619533 Z M202.477278,84.8285249 C202.593691,85.1451798 202.743365,85.4285026 202.942931,85.6451613 C203.142496,85.8618199 203.375322,86.0284804 203.641409,86.1451428 C203.907496,86.2618051 204.190214,86.3118033 204.489561,86.3118033 C204.788909,86.3118033 205.071627,86.2618051 205.337714,86.1451428 C205.603801,86.0284804 205.836627,85.8618199 206.036192,85.6284952 C206.235758,85.3951705 206.402062,85.1285138 206.501845,84.7951928 C206.618258,84.4618718 206.668149,84.0785526 206.668149,83.6619014 C206.668149,83.2285841 206.618258,82.861931 206.501845,82.5286101 C206.402062,82.1952891 206.235758,81.9119662 206.036192,81.6953076 C205.836627,81.4619829 205.620431,81.2953224 205.354344,81.17866 C205.088257,81.0619977 204.80554,80.9953335 204.522822,80.9953335 C204.223474,80.9953335 203.940757,81.0453317 203.6913,81.161994 C203.425213,81.2786563 203.192387,81.4453168 202.992822,81.6786415 C202.793257,81.8953002 202.643583,82.178623 202.527169,82.495278 C202.427387,82.8119329 202.360865,83.195252 202.360865,83.6119033 C202.360865,84.0285545 202.427387,84.4118736 202.527169,84.7285286 L202.477278,84.8285249 Z M210.293585,80.1953631 L210.293585,81.3119884 L210.326846,81.3119884 C210.809129,80.4620199 211.557499,80.0453687 212.588586,80.0453687 C213.054238,80.0453687 213.436739,80.1120329 213.736087,80.2286952 C214.035434,80.3453576 214.284891,80.5286841 214.484456,80.7453428 C214.684022,80.9620014 214.817065,81.2286582 214.883587,81.5453131 C214.966739,81.845302 215,82.1952891 215,82.5786082 L215,87.1617718 L213.8525,87.1617718 L213.8525,82.4452798 C213.8525,82.0119625 213.736087,81.6619755 213.48663,81.4119847 C213.237173,81.161994 212.887934,81.0286656 212.455543,81.0286656 C212.106303,81.0286656 211.806955,81.0786638 211.557499,81.1953261 C211.308042,81.2953224 211.091846,81.4619829 210.925542,81.6453094 C210.759238,81.845302 210.626194,82.0786267 210.543042,82.3452835 C210.45989,82.6119403 210.409998,82.8952631 210.409998,83.2119181 L210.409998,87.1617718 L209.262498,87.1617718 L209.262498,80.1786971 L210.343477,80.1786971 L210.293585,80.1953631 Z"/>
</svg>
