<svg xmlns="http://www.w3.org/2000/svg" width="94" height="94" viewBox="0 0 94 94">
  <g fill="none" fill-rule="evenodd" stroke="#A5ADB8" transform="translate(2 2)">
    <path fill="#A5ADB8" fill-rule="nonzero" stroke-width=".5" d="M68.1687601,17.0273736 C67.7197601,16.9193736 67.2317601,17.1383736 67.0247601,17.5533736 L53.2427601,39.0983736 L47.9047601,39.9873736 L42.9497601,39.1623736 L43.8987601,25.0573736 C43.9197601,24.6863736 43.7327601,24.3353736 43.4147601,24.1443736 L38.6127601,21.1443736 C38.3617601,20.9943736 37.9797601,20.9623736 37.9797601,21.0543736 L22.7817601,26.0523736 C22.3437601,26.1983736 21.9637601,26.6253736 22.0027601,27.0853736 C22.0417601,27.5453736 22.3407601,27.9183736 22.7967601,27.9893736 L33.9197601,29.7043736 L28.9777601,39.6453736 C28.9177601,39.8013736 28.8927601,39.9703736 28.9147601,40.1363736 L31.9117601,62.1363736 C31.9797601,62.6313736 32.3997601,63.0003736 32.8997601,63.0003736 L37.7167601,63.0003736 L38.9377601,65.2753736 C38.9917601,65.4603736 39.0957601,65.6263736 39.2417601,65.7533736 L47.2417601,72.7533736 C47.4297601,72.9183736 47.6647601,73.0003736 47.8997601,73.0003736 C48.1347601,73.0003736 48.3697601,72.9173736 48.5577601,72.7523736 L56.5577601,65.7523736 C56.7037601,65.6263736 56.8077601,65.4603736 56.8617601,65.2743736 L60.8247601,53.4043736 L68.7917601,40.5233736 C68.8877601,40.3673736 68.9797601,40.1863736 68.9797601,40.0003736 L68.9797601,18.0003736 C68.9797601,17.5373736 68.6207601,17.1343736 68.1687601,17.0273736 Z M42.5277601,41.1123736 L46.9797601,41.8483736 L46.9797601,52.0003736 L37.4617601,52.0003736 L42.5277601,41.1123736 Z M48.9797601,41.8483736 L53.3517601,41.1133736 L58.3367601,52.0003736 L48.9797601,52.0003736 L48.9797601,41.8483736 Z M27.1397601,26.6413736 L36.2137601,23.6163736 L34.6227601,27.7923736 L27.1397601,26.6413736 Z M33.7727601,61.0003736 L30.9247601,40.1183736 L38.4097601,23.4723736 L41.8677601,25.5473736 L40.9127601,39.7533736 L34.9917601,52.5813736 C34.8907601,52.8013736 34.8777601,53.0463736 34.9417601,53.2743736 L37.1447601,61.0003736 L33.7727601,61.0003736 Z M55.0187601,64.4423736 L47.8997601,70.6713736 L40.7807601,64.4423736 L37.2257601,54.0003736 L58.5737601,54.0003736 L55.0187601,64.4423736 Z M66.9797601,39.7173736 L60.0657601,50.8873736 L55.0687601,40.0173736 L66.9797601,22.2363736 L66.9797601,39.7173736 Z"/>
    <circle cx="45" cy="45" r="45" stroke-width="3"/>
  </g>
</svg>
