<svg xmlns="http://www.w3.org/2000/svg" width="94" height="94" viewBox="0 0 94 94">
  <g fill="none" fill-rule="evenodd" transform="translate(2 2)">
    <path fill="#A5ADB8" fill-rule="nonzero" d="M43.15,63.0564103 C44.05,63.0564103 44.95,63.0059829 45.85,62.9555556 C46.55,62.9051282 47.05,62.3 47,61.5940171 C46.95,60.8880342 46.35,60.3837607 45.65,60.434188 C44.8,60.4846154 43.95,60.5350427 43.15,60.5350427 C35,60.5350427 28.9,57.7615385 28.9,55.2905983 L28.9,50.8025641 C31.8,52.9709402 37,54.382906 43.15,54.382906 C43.75,54.382906 44.3,54.382906 44.85,54.3324786 C45.55,54.2820513 46.05,53.7273504 46.05,53.0213675 C46,52.3153846 45.45,51.8111111 44.75,51.8111111 C44.2,51.8111111 43.7,51.8615385 43.15,51.8615385 C35,51.8615385 28.9,49.0880342 28.9,46.617094 L28.9,42.1290598 C31.8,44.2974359 37,45.7094017 43.15,45.7094017 C52.7,45.7094017 59.9,42.3811966 59.9,37.9435897 L59.9,29.1692308 C59.9,24.7316239 52.7,21.4034188 43.15,21.4034188 C33.6,21.4034188 26.4,24.7820513 26.4,29.1692308 L26.4,55.2905983 C26.4,59.7282051 33.6,63.0564103 43.15,63.0564103 Z M43.15,43.1376068 C35,43.1376068 28.9,40.3641026 28.9,37.8931624 L28.9,33.4051282 C31.8,35.5735043 37,36.9854701 43.15,36.9854701 C49.3,36.9854701 54.5,35.5735043 57.4,33.4051282 L57.4,37.8931624 C57.4,40.3641026 51.35,43.1376068 43.15,43.1376068 Z M43.15,23.9752137 C51.3,23.9752137 57.4,26.7487179 57.4,29.2196581 C57.4,31.6905983 51.35,34.4136752 43.15,34.4136752 C34.95,34.4136752 28.9,31.6401709 28.9,29.1692308 C28.9,26.6982906 35,23.9752137 43.15,23.9752137 Z M47.75,55.9461538 C47.75,61.9974359 52.65,66.9393162 58.65,66.9393162 C64.65,66.9393162 69.55,61.9974359 69.55,55.9461538 C69.55,49.8948718 64.65,44.9529915 58.65,44.9529915 C52.65,44.9529915 47.75,49.8948718 47.75,55.9461538 Z M67.1,55.9461538 C67.1,60.6358974 63.35,64.4179487 58.7,64.4179487 C54.05,64.4179487 50.3,60.6358974 50.3,55.9461538 C50.3,51.2564103 54.05,47.474359 58.7,47.474359 C63.3,47.474359 67.1,51.3068376 67.1,55.9461538 Z M57.35,56.4504274 L61,52.7692308 C61.5,52.2649573 62.3,52.2649573 62.75,52.7692308 C63.25,53.2735043 63.25,54.0803419 62.75,54.534188 L58.2,59.1230769 C57.95,59.3752137 57.65,59.4760684 57.3,59.4760684 C57,59.4760684 56.65,59.3752137 56.4,59.1230769 L54.5,57.2068376 C54,56.7025641 54,55.8957265 54.5,55.4418803 C55,54.9880342 55.8,54.9376068 56.25,55.4418803 L57.35,56.4504274 Z"/>
    <circle cx="45" cy="45" r="45" stroke="#A5ADB8" stroke-width="3"/>
  </g>
</svg>
