<svg xmlns="http://www.w3.org/2000/svg" width="94" height="94" viewBox="0 0 94 94">
  <g fill="none" fill-rule="evenodd" stroke="#A5ADB8" transform="translate(2 2)">
    <path fill="#A5ADB8" fill-rule="nonzero" stroke-width=".5" d="M24.5749526,49.1735958 C19.8083491,44.4055857 19.8083491,36.6766058 24.5749526,31.9085958 L29.6049526,26.8785958 C29.7420038,26.7421395 29.9156836,26.6483524 30.1049526,26.6085958 C30.2449828,26.5781439 30.3899224,26.5781439 30.5299526,26.6085958 L32.1399526,26.9585958 C32.348099,27.0045395 32.5652524,26.9403377 32.7149526,26.7885958 C32.8859505,26.6231522 32.9596456,26.3812811 32.9099526,26.1485958 L32.5699526,24.5635958 C32.4992895,24.2325564 32.6008907,23.888241 32.8399526,23.6485958 L34.8099526,21.6785958 C35.2441438,21.2441139 35.8332079,21 36.4474526,21 C37.0616973,21 37.6507614,21.2441139 38.0849526,21.6785958 L44.4949526,28.0935958 C45.3969925,28.9989244 45.3969925,30.4632672 44.4949526,31.3685958 L42.5299526,33.3385958 C42.2903074,33.5776576 41.945992,33.6792589 41.6149526,33.6085958 L39.7849526,33.2085958 C39.6806929,33.1874594 39.5735942,33.2283516 39.5099526,33.3135958 C39.3338414,33.6156128 39.2585329,33.9658846 39.2949526,34.3135958 C39.4314189,34.9443538 39.7702871,35.5132311 40.2599526,35.9335958 L42.2149526,37.6085958 C42.5359749,37.8241467 42.7039587,38.2054572 42.6463413,38.5878154 C42.5887239,38.9701736 42.3158321,39.2850487 41.945545,39.3964265 C41.5752579,39.5078043 41.1739428,39.3957223 40.9149526,39.1085958 L38.9599526,37.4335958 C38.1378966,36.727756 37.5690233,35.7726107 37.3399526,34.7135958 C37.1798301,33.802956 37.3787518,32.8656947 37.8949526,32.0985958 C38.4241022,31.3722673 39.3312224,31.0254848 40.2099526,31.2135958 L41.5049526,31.4885958 L43.0899526,29.9035958 C43.213231,29.7789251 43.213231,29.5782665 43.0899526,29.4535958 L36.6649526,23.0935958 C36.6057046,23.033126 36.5246103,22.9990499 36.4399526,22.9990499 C36.3552949,22.9990499 36.2742006,23.033126 36.2149526,23.0935958 L34.6349526,24.6785958 L34.8599526,25.7285958 C35.062568,26.623174 34.7927099,27.5591855 34.1449526,28.2085958 C33.514669,28.853958 32.5958142,29.1281019 31.7149526,28.9335958 L30.6399526,28.6985958 L25.9949526,33.3435958 C22.1715799,37.1635486 21.9874468,43.3013167 25.5749526,47.3435958 L26.8899526,46.3435958 C26.0460557,44.1289692 26.584837,41.6251054 28.2649526,39.9535958 C28.3749526,39.8435958 28.4882859,39.7385958 28.6049526,39.6385958 C30.9589211,37.6971016 34.4348939,38.0019725 36.4149526,40.3235958 L37.9649526,42.0985958 C38.2812804,42.5167468 38.2209254,43.1082189 37.8266587,43.4538594 C37.432392,43.7994999 36.8381082,43.7819278 36.4649526,43.4135958 L34.9149526,41.6385958 C33.6634963,40.1363339 31.4391052,39.9138948 29.9149526,41.1385958 C29.8349526,41.2052625 29.7582859,41.2752625 29.6849526,41.3485958 C28.4557079,42.5665542 28.1490356,44.4368514 28.9249526,45.9835958 C29.2068806,46.5475634 29.0398279,47.2326913 28.5299526,47.6035958 L26.2549526,49.2985958 C25.7418687,49.6779629 25.0289074,49.6270371 24.5749526,49.1785958 L24.5749526,49.1735958 Z M59.3199526,63.9335958 C58.4560493,63.9153441 57.6381245,63.5407635 57.0599526,62.8985958 L49.6749526,54.5835958 C49.3076832,54.1693823 48.6741662,54.1313265 48.2599526,54.4985958 C47.8457391,54.8658652 47.8076833,55.4993822 48.1749526,55.9135958 L55.5649526,64.2085958 C56.510229,65.2624091 57.8496356,65.8778121 59.2649526,65.9085958 L59.3999526,65.9085958 C61.5356227,65.9045607 63.4485581,64.5865218 64.2129927,62.5923445 C64.9774273,60.5981673 64.4356891,58.3391701 62.8499526,56.9085958 L54.5299526,49.5485958 C54.115739,49.1813264 53.482222,49.2193823 53.1149526,49.6335958 C52.7476833,50.0478094 52.785739,50.6813264 53.1999526,51.0485958 L61.5299526,58.4235958 C62.5022959,59.3127722 62.8220521,60.7113302 62.3327055,61.9346969 C61.8433588,63.1580636 60.6472884,63.950291 59.3299526,63.9235958 L59.3199526,63.9335958 Z M68.0299526,33.3535958 C68.3026352,36.1235023 67.3907277,38.8794811 65.5197132,40.940074 C63.6486987,43.0006668 60.9932445,44.1735085 58.2099526,44.1685958 C57.9549526,44.1685958 57.7099526,44.1685958 57.4449526,44.1385958 C56.1982429,44.0321001 54.9682532,44.4823642 54.0849526,45.3685958 L44.0299526,55.4385958 C43.1490055,56.325267 42.6996686,57.5527239 42.7999526,58.7985958 C43.0149097,61.539883 42.0742293,64.2462351 40.2053779,66.2632271 C38.3365265,68.2802192 35.7096491,69.4242192 32.9599526,69.4185958 C32.6399526,69.4185958 32.3149526,69.4185958 31.9999526,69.3735958 C31.2544734,69.3028234 30.6181612,68.8050946 30.3699526,68.0985958 C30.1084366,67.3825669 30.2881309,66.5798021 30.8299526,66.0435958 L33.7149526,63.1585958 C34.3138624,62.5592347 34.3138624,61.5879569 33.7149526,60.9885958 L31.5299526,58.7935958 C30.921998,58.2158164 29.9679072,58.2158164 29.3599526,58.7935958 L26.4749526,61.6785958 C25.9438457,62.2229244 25.1452711,62.4098571 24.4277466,62.1578119 C23.7102222,61.9057666 23.2039784,61.2604897 23.1299526,60.5035958 C22.8634608,57.7386951 23.7767713,54.9897982 25.6448846,52.9341118 C27.5129979,50.8784255 30.1622393,49.7070628 32.9399526,49.7085958 C33.1949526,49.7085958 33.4399526,49.7085958 33.7049526,49.7385958 C34.9513824,49.8430033 36.1805176,49.393052 37.0649526,48.5085958 L47.1299526,38.4185958 C48.0108996,37.5319246 48.4602366,36.3044676 48.3599526,35.0585958 C48.132687,32.1521957 49.2045472,29.2944236 51.2870771,27.2543549 C53.369607,25.2142862 56.2488501,24.2015151 59.1499526,24.4885958 C59.8973071,24.5575073 60.5359935,25.0555655 60.7849526,25.7635958 C61.0464686,26.4796246 60.8667743,27.2823895 60.3249526,27.8185958 L57.4399526,30.7085958 C56.8437855,31.3090897 56.8437855,32.2781018 57.4399526,32.8785958 L59.6299526,35.0685958 C60.2379072,35.6463752 61.191998,35.6463752 61.7999526,35.0685958 L64.6849526,32.1835958 C65.2153857,31.6395997 66.0129613,31.4522023 66.7301518,31.7030582 C67.4473424,31.9539141 67.9542316,32.5975817 68.0299526,33.3535958 L68.0299526,33.3535958 Z M66.0299526,33.6385958 L63.2099526,36.4735958 C62.5469808,37.1367679 61.6476779,37.5093509 60.7099526,37.5093509 C59.7722273,37.5093509 58.8729244,37.1367679 58.2099526,36.4735958 L56.0299526,34.2885958 C54.651702,32.9068653 54.651702,30.6703262 56.0299526,29.2885958 L58.8499526,26.4685958 C56.5521531,26.2705613 54.2835215,27.0930097 52.6464614,28.717551 C51.0094014,30.3420924 50.1695626,32.6043438 50.3499526,34.9035958 C50.4922802,36.7323645 49.8272938,38.5318468 48.5299526,39.8285958 L38.4749526,49.8985958 C37.1736311,51.2007623 35.3644115,51.8629843 33.5299526,51.7085958 C31.2340345,51.5344086 28.9774055,52.3769898 27.3574826,54.0132755 C25.7375598,55.6495612 24.9177002,57.9145442 25.1149526,60.2085958 L27.9299526,57.3685958 C28.5929244,56.7054237 29.4922273,56.3328407 30.4299526,56.3328407 C31.3676779,56.3328407 32.2669808,56.7054237 32.9299526,57.3685958 L35.1199526,59.5585958 C36.4982032,60.9403262 36.4982032,63.1768653 35.1199526,64.5585958 L32.2999526,67.3785958 C32.5199526,67.3785958 32.7399526,67.4035958 32.9599526,67.4035958 C35.1466771,67.4044213 37.2346402,66.4930948 38.720924,64.8891231 C40.2072078,63.2851515 40.9570909,61.1339236 40.7899526,58.9535958 C40.6435194,57.1246745 41.3048821,55.3232834 42.5999526,54.0235958 L52.6699526,43.9585958 C53.967776,42.6606053 55.7705633,41.99873 57.5999526,42.1485958 L58.2099526,42.1485958 C60.40625,42.1479787 62.5018476,41.2272989 63.9879181,39.6101046 C65.4739885,37.9929103 66.2146095,35.8271169 66.0299526,33.6385958 Z"/>
    <circle cx="45" cy="45" r="45" stroke-width="3"/>
  </g>
</svg>
