<svg xmlns="http://www.w3.org/2000/svg" width="94" height="94" viewBox="0 0 94 94">
  <g fill="none" fill-rule="evenodd" stroke="#A5ADB8" transform="translate(2 2)">
    <path fill="#A5ADB8" fill-rule="nonzero" stroke-width=".5" d="M66.9210383,27 L57.7490928,27 C57.433673,26.9999794 57.1340358,27.1369507 56.9290129,27.374878 L52.7638706,32.1947373 L48.5987283,27.374878 C48.3937055,27.1369507 48.0940682,26.9999794 47.7786485,27 L23.0791387,27 C22.6579274,26.9999725 22.2752025,27.2432312 22.0989846,27.622983 C21.9227666,28.0027348 21.9852715,28.4495538 22.2590589,28.7672818 L26.9799132,34.2083675 L26.9799132,62.9289201 C26.9799132,63.5204612 27.4630214,64 28.0589656,64 L61.5662407,64 C62.1621849,64 62.6452931,63.5204612 62.6452931,62.9289201 C62.6452931,62.3373791 62.1621849,61.8578403 61.5662407,61.8578403 L29.138018,61.8578403 L29.138018,34.899214 L51.6848182,34.899214 L51.6848182,62.120981 C51.6848182,62.712522 52.1679265,63.1920608 52.7638706,63.1920608 C53.3598148,63.1920608 53.842923,62.712522 53.842923,62.120981 L53.842923,34.899214 L60.8567637,34.899214 L60.8567637,62.5012143 C60.8567637,63.0927554 61.339872,63.5722942 61.9358161,63.5722942 C62.5317603,63.5722942 63.0148686,63.0927554 63.0148686,62.5012143 L63.0148686,34.2083675 L67.7357229,28.783348 C68.0126517,28.4667516 68.0780136,28.0188769 67.902976,27.6372925 C67.7307617,27.2513682 67.3462646,27.0018238 66.9210383,27 Z M28.1209503,33 L25,29 L46.8736501,29 L50,32.9881481 L28.1209503,33 Z M61.0410959,33 L55,33 L57.9589041,29 L64,29 L61.0410959,33 Z"/>
    <circle cx="45" cy="45" r="45" stroke-width="3"/>
  </g>
</svg>
